inDegrees=no
num_controls=7
num_derivatives=13
num_iterations=178
num_multipliers=7
num_parameters=0
num_slacks=7
num_states=26
objective=6.026581
objective_accelerations=0.623237
objective_balance=0.047814
objective_effort=0.576167
objective_height=4.755587
objective_ligament=0.023777
solver_duration=1872.033525
status=Solve_Succeeded
success=true
DataType=double
version=3
OpenSimVersion=4.4-2022-07-23-0e9fedc
endheader
time	/jointset/ground_pelvis/pelvis_tilt/value	/jointset/ground_pelvis/pelvis_tx/value	/jointset/ground_pelvis/pelvis_ty/value	/jointset/hip_l/hip_flexion_l/value	/jointset/hip_l/hip_adduction_l/value	/jointset/hip_l/hip_rotation_l/value	/jointset/back/lumbar_extension/value	/jointset/patellofemoral_l/patellar_flexion_l/value	/jointset/knee_l/knee_flexion_l/value	/jointset/knee_l/knee_adduction_l/value	/jointset/knee_l/knee_rotation_l/value	/jointset/ankle_l/ankle_angle_l/value	/jointset/subtalar_l/subtalar_angle_l/value	/jointset/ground_pelvis/pelvis_tilt/speed	/jointset/ground_pelvis/pelvis_tx/speed	/jointset/ground_pelvis/pelvis_ty/speed	/jointset/hip_l/hip_flexion_l/speed	/jointset/hip_l/hip_adduction_l/speed	/jointset/hip_l/hip_rotation_l/speed	/jointset/back/lumbar_extension/speed	/jointset/patellofemoral_l/patellar_flexion_l/speed	/jointset/knee_l/knee_flexion_l/speed	/jointset/knee_l/knee_adduction_l/speed	/jointset/knee_l/knee_rotation_l/speed	/jointset/ankle_l/ankle_angle_l/speed	/jointset/subtalar_l/subtalar_angle_l/speed	/forceset/tau_hip_flexion_l	/forceset/tau_hip_adduction_l	/forceset/tau_hip_rotation_l	/forceset/tau_knee_flexion_l	/forceset/tau_ankle_angle_l	/forceset/tau_subtalar_angle_l	/forceset/tau_lumbar_extension	lambda_cid13_p0	lambda_cid13_p1	lambda_cid13_p2	lambda_cid13_p3	lambda_cid13_p4	lambda_cid13_p5	lambda_cid14_p0	/jointset/ground_pelvis/pelvis_tilt/accel	/jointset/ground_pelvis/pelvis_tx/accel	/jointset/ground_pelvis/pelvis_ty/accel	/jointset/hip_l/hip_flexion_l/accel	/jointset/hip_l/hip_adduction_l/accel	/jointset/hip_l/hip_rotation_l/accel	/jointset/back/lumbar_extension/accel	/jointset/patellofemoral_l/patellar_flexion_l/accel	/jointset/knee_l/knee_flexion_l/accel	/jointset/knee_l/knee_adduction_l/accel	/jointset/knee_l/knee_rotation_l/accel	/jointset/ankle_l/ankle_angle_l/accel	/jointset/subtalar_l/subtalar_angle_l/accel	gamma_cid13_p0	gamma_cid13_p1	gamma_cid13_p2	gamma_cid13_p3	gamma_cid13_p4	gamma_cid13_p5	gamma_cid14_p0
1	-0.2343595878942158	-0.1051753708672199	0.6464693151694126	1.553395499711968	-0.3222106816416468	0.07498464318447028	-0.9599304224056114	1.3897857126233	1.389785712623289	-0.06639740323357246	-0.1745325152652387	0.163987203238441	0.0252355486170507	0.09623996628090802	0.02088728982422615	0.07348572003535375	-0.2901479087062173	-0.007694306663681983	-0.06107972223634271	3.387100536886021e-05	-0.1600600913096715	-0.1600600913096781	-0.005246652033417868	7.519338823130011e-06	0.02521466980478763	0.001437051967425231	-0.4625209418437048	-0.005890093002800715	0.0001665677175588475	-0.3265411389929672	0.1052441008053054	0.03056418319987163	0.4702075903221708	-18.50907550602271	-9.30241785318521	0.1940009158397315	9.363006337203892	-812.8896421999737	-66.08840794880453	-0.04173262676375877	1.207265912809527	0.09443498808445457	1.729347068058065	-5.871686931103466	-0.2282871186482998	-1.650013294574197	-0.01380271164143222	-4.988945021386249	-4.988945021386518	-0.4249631975004451	-0.02166034125846613	-0.66659225282594	-0.4957748094911423	-1.082009555691452e-08	3.496302627509601e-09	6.215781891732814e-08	5.119239259287391e-09	-2.417970245354706e-08	1.2828465947241e-07	-1.842040459720154e-08
1.01	-0.2333372175644891	-0.1049617428045518	0.6472903921314751	1.550201401300774	-0.3222981479234312	0.07429069234469293	-0.9599302202346645	1.387936015572599	1.387936015572594	-0.0664692352679801	-0.1745324820845795	0.1642060421897632	0.02522619641168502	0.1082416766789641	0.02184453497619302	0.09071500007911558	-0.3486469778095393	-0.009787874381889093	-0.0777022389883016	6.910967110601979e-06	-0.2098652376280005	-0.2098652376280068	-0.009115250273614626	-4.301390565076935e-07	0.01853580795919993	-0.00330122515697504	-0.4614831567836001	-0.005715892522162969	0.0001063672740226229	-0.3264329144956786	0.1052077617510735	0.03074675400152959	0.4696280921060237	-18.47092389755886	-9.397743835199959	0.2198845500927936	9.224174849754119	-812.297874041795	-66.21856817234385	-0.04177043311464811	1.197757528721568	0.09730259508743344	1.717511548838961	-5.83530091199757	-0.1982361217746617	-1.667159251135728	0.002909521772590646	-4.974182295701021	-4.97418229570079	-0.3671454318289674	0.009727598885569842	-0.6711301854985734	-0.4619234763920424	-1.573152856402875e-08	-4.638260455544765e-09	8.754644891630795e-08	7.358838269612786e-09	-3.033278152433357e-08	1.530997028494704e-07	-2.474097610997856e-08
1.02	-0.2321946033457008	-0.1047383556270973	0.648283320509236	1.54642305539613	-0.3224062187870721	0.07343075866027163	-0.9599302772299688	1.385588690486987	1.385588690486993	-0.06657962074369918	-0.1745325104288169	0.1643575731156148	0.02516964757257985	0.1202887440937397	0.02283911278154273	0.1078560031750296	-0.4069974073949011	-0.0118152230348084	-0.09427629116542115	-1.796220351438356e-05	-0.2595856982921214	-0.259585698292126	-0.01295734029579803	-4.785619406827106e-06	0.01175306471067679	-0.008002274780479482	-0.4604453717235132	-0.005541692041523619	4.616683047122922e-05	-0.3263246899983892	0.1051714226968466	0.03092932480319154	0.4690485938898593	-18.44173903049593	-9.490357137745834	0.2440306395061144	9.126475084757967	-811.8222665740052	-66.32099063756661	-0.04180502494578129	1.216337316153427	0.1019015187610297	1.711691678488492	-5.841959027511409	-0.2150433055908021	-1.640320379606385	-0.0133853381143769	-4.972007890544622	-4.972007890544617	-0.4196615538978022	-0.02094154175272356	-0.6873685334130277	-0.4883293093120507	-2.073095077273603e-08	-1.277263957268267e-08	1.11815550358119e-07	1.002218796050381e-08	-3.64914111613149e-08	1.75710312073008e-07	-3.073260765754405e-08
1.03	-0.2309312351449749	-0.1045047970847344	0.6494471650799215	1.542061997482161	-0.3225342075021405	0.07240538716162856	-0.9599305749586777	1.382744659163443	1.382744659163446	-0.0667283196444014	-0.1745325830124476	0.1644407289713072	0.02506629736623373	0.1323976359461806	0.02388258251873855	0.1248930937816404	-0.4651845889270307	-0.01376747276288101	-0.1107855253142276	-4.113324378906867e-05	-0.3091996306038334	-0.309199630603827	-0.01677710923757569	-8.706377363495013e-06	0.004858273930843183	-0.01265730869624633	-0.459124726605207	-0.005318384127654588	-4.097810405091904e-05	-0.3260859351449575	0.1053045949237384	0.03118436630417631	0.4683137643609344	-18.33322920938222	-9.632804034446687	0.2812276518116203	8.895886281219585	-811.0514494129934	-66.47942025620273	-0.04185677293514984	1.210072504197998	0.1070702794991038	1.696736607329635	-5.80266443141714	-0.1830696533848959	-1.654381673940875	0.003284550255790766	-4.952938149061238	-4.952938149059589	-0.3623544151725674	0.01006942441944302	-0.6935100706517568	-0.4525343543931217	-2.573127083043915e-08	-2.090701681261735e-08	1.360732280391425e-07	1.268986163793121e-08	-4.26500974367268e-08	1.982984270704893e-07	-3.672088267485226e-08
1.04	-0.2295463965488429	-0.1042605037293395	0.6507807843277899	1.5371199544098	-0.3226812694838831	0.07121529197321073	-0.9599310885968813	1.379405118067266	1.379405118067268	-0.06691506020469348	-0.1745326574501095	0.1644543417751245	0.02491670803639313	0.1445828231749673	0.02498607538794151	0.1418109386115439	-0.5231944390732969	-0.01562987636972959	-0.1272210291199585	-6.160279446220084e-05	-0.3586876528186154	-0.3586876528185981	-0.02056567221354588	-5.156445857055e-06	-0.002155545664319568	-0.01725009947937822	-0.4578040814868973	-0.005095076213787515	-0.0001281230385699672	-0.325847180291526	0.1054377671506287	0.03143940780515819	0.4675789348320127	-18.23392975765144	-9.772501073023207	0.3166874337310737	8.707217195410411	-810.3996803624593	-66.61151834630078	-0.04190479713511532	1.231596391422594	0.1139061451624598	1.687842523147014	-5.806492750338694	-0.1970740813460209	-1.625574310991296	-0.01284504019320919	-4.946825871158611	-4.946825871158633	-0.4134203607363225	-0.01944740386015203	-0.7111742964788581	-0.4758806827850914	-3.312024147067325e-08	-3.130992138137349e-08	1.586387718973007e-07	1.863038524966163e-08	-4.982354886044334e-08	2.236894686669196e-07	-4.339644816530224e-08
